<svg width="23" height="25" viewBox="0 0 23 25" fill="none" xmlns="http://www.w3.org/2000/svg">
<path d="M7.89607 1.40807C5.52338 2.23118 3.47718 3.79346 2.05802 5.86544C0.638862 7.93743 -0.0784558 10.4099 0.0114317 12.9197C0.101319 15.4295 0.993674 17.8443 2.55742 19.8095C4.12117 21.7746 6.27389 23.1865 8.69938 23.8378C10.6658 24.3452 12.726 24.3674 14.7029 23.9027C16.4938 23.5004 18.1495 22.64 19.5079 21.4056C20.9218 20.0816 21.948 18.3973 22.4763 16.5337C23.0505 14.5072 23.1527 12.376 22.775 10.3039H11.7327V14.8844H18.1276C17.9998 15.615 17.7259 16.3123 17.3224 16.9345C16.9188 17.5568 16.3939 18.0912 15.7789 18.5058C14.998 19.0224 14.1177 19.37 13.1946 19.5262C12.2687 19.6984 11.3191 19.6984 10.3932 19.5262C9.45481 19.3322 8.5671 18.9449 7.78661 18.389C6.53275 17.5014 5.59127 16.2405 5.09653 14.7861C4.59342 13.3045 4.59342 11.6983 5.09653 10.2167C5.4487 9.17816 6.03088 8.23259 6.79963 7.45055C7.67936 6.53916 8.79313 5.8877 10.0187 5.56763C11.2443 5.24757 12.5344 5.27127 13.7474 5.63613C14.695 5.92702 15.5616 6.43525 16.278 7.12032C16.999 6.40296 17.7189 5.68375 18.4375 4.96269C18.8085 4.57494 19.2129 4.20575 19.5784 3.80874C18.4849 2.7911 17.2013 1.99925 15.8012 1.47857C13.2516 0.552795 10.4618 0.527916 7.89607 1.40807Z" fill="white"/>
<path d="M7.89728 1.40897C10.4628 0.528219 13.2526 0.552444 15.8024 1.47762C17.2027 2.00184 18.4858 2.7975 19.5778 3.81891C19.2067 4.21593 18.8153 4.58698 18.4368 4.97286C17.717 5.69146 16.9978 6.40757 16.2792 7.12122C15.5628 6.43615 14.6963 5.92792 13.7487 5.63704C12.536 5.27089 11.246 5.24582 10.0201 5.56458C8.79413 5.88333 7.67968 6.5336 6.79898 7.44403C6.03024 8.22607 5.44805 9.17164 5.09588 10.2102L1.25 7.23253C2.62659 4.50268 5.01008 2.41455 7.89728 1.40897Z" fill="#E33629"/>
<path d="M0.230043 10.1822C0.436754 9.15776 0.779939 8.16565 1.25042 7.23242L5.0963 10.2175C4.59319 11.6991 4.59319 13.3053 5.0963 14.7869C3.81496 15.7764 2.533 16.7708 1.25042 17.7701C0.072628 15.4257 -0.286577 12.7545 0.230043 10.1822Z" fill="#F8BD00"/>
<path d="M11.7352 10.3027H22.7775C23.1552 12.3749 23.053 14.5061 22.4788 16.5326C21.9505 18.3961 20.9243 20.0804 19.5105 21.4044C18.2693 20.436 17.0226 19.475 15.7814 18.5065C16.3968 18.0915 16.922 17.5565 17.3256 16.9336C17.7292 16.3106 18.0028 15.6127 18.1302 14.8814H11.7352C11.7333 13.3564 11.7352 11.8296 11.7352 10.3027Z" fill="#587DBD"/>
<path d="M1.25 17.7703C2.53258 16.7809 3.81454 15.7865 5.09588 14.7871C5.59161 16.242 6.53444 17.503 7.78967 18.39C8.57259 18.9433 9.46222 19.3275 10.4018 19.5179C11.3277 19.6901 12.2774 19.6901 13.2032 19.5179C14.1264 19.3617 15.0067 19.0141 15.7876 18.4976C17.0287 19.466 18.2754 20.427 19.5166 21.3954C18.1583 22.6305 16.5026 23.4916 14.7115 23.8944C12.7346 24.3592 10.6744 24.3369 8.70801 23.8295C7.15278 23.4142 5.70009 22.6822 4.44099 21.6793C3.10831 20.6212 2.01984 19.2878 1.25 17.7703Z" fill="#319F43"/>
</svg>
