<svg width="294" height="268" viewBox="0 0 294 268" fill="none" xmlns="http://www.w3.org/2000/svg">
<path d="M294 147C294 127.696 290.198 108.58 282.81 90.7455C275.423 72.9107 264.595 56.7055 250.945 43.0553C237.294 29.4051 221.089 18.5771 203.254 11.1897C185.42 3.80227 166.304 -8.43818e-07 147 0C127.696 8.43819e-07 108.58 3.80227 90.7455 11.1897C72.9107 18.5772 56.7055 29.4051 43.0553 43.0553C29.4051 56.7055 18.5771 72.9107 11.1897 90.7455C3.80226 108.58 -1.68764e-06 127.696 0 147L147 147H294Z" fill="#F8BEB0"/>
<circle cx="37" cy="150" r="37" fill="#F8BEB0"/>
<circle cx="111" cy="150" r="37" fill="#F8BEB0"/>
<circle cx="185" cy="150" r="37" fill="#F8BEB0"/>
<circle cx="257" cy="147" r="37" fill="#F8BEB0"/>
</svg>
