<svg width="1629" height="709" viewBox="0 0 1629 709" fill="none" xmlns="http://www.w3.org/2000/svg">
<g clip-path="url(#clip0_146_1540)">
<rect x="48" y="348" width="212" height="67" rx="33.5" fill="#735DFF"/>
<circle cx="293.5" cy="381.5" r="33.5" fill="#735DFF"/>
<path d="M250.954 383.29C256.862 387.927 268.916 386.735 269.106 383.29C269.297 379.845 276.284 408.344 267.833 400.688C259.382 393.033 260.208 393.798 251.948 400.688C243.688 407.578 250.954 383.29 250.954 383.29Z" fill="#735DFF"/>
<path d="M250.954 380.679C256.862 375.554 268.916 376.871 269.106 380.679C269.297 384.487 276.284 352.989 267.833 361.45C259.382 369.911 260.208 369.065 251.948 361.45C243.688 353.835 250.954 380.679 250.954 380.679Z" fill="#735DFF"/>
<rect x="255" y="376" width="10" height="14" fill="#735DFF"/>
<path d="M84.138 379.105C83.76 378.377 83.235 377.831 82.563 377.467C81.891 377.089 81.114 376.9 80.232 376.9C79.266 376.9 78.405 377.117 77.649 377.551C76.893 377.985 76.298 378.601 75.864 379.399C75.444 380.197 75.234 381.121 75.234 382.171C75.234 383.221 75.444 384.152 75.864 384.964C76.298 385.762 76.893 386.378 77.649 386.812C78.405 387.246 79.266 387.463 80.232 387.463C81.534 387.463 82.591 387.099 83.403 386.371C84.215 385.643 84.712 384.656 84.894 383.41H79.413V381.499H87.456V383.368C87.302 384.502 86.896 385.545 86.238 386.497C85.594 387.449 84.747 388.212 83.697 388.786C82.661 389.346 81.506 389.626 80.232 389.626C78.86 389.626 77.607 389.311 76.473 388.681C75.339 388.037 74.436 387.148 73.764 386.014C73.106 384.88 72.777 383.599 72.777 382.171C72.777 380.743 73.106 379.462 73.764 378.328C74.436 377.194 75.339 376.312 76.473 375.682C77.621 375.038 78.874 374.716 80.232 374.716C81.786 374.716 83.165 375.101 84.369 375.871C85.587 376.627 86.469 377.705 87.015 379.105H84.138ZM92.2112 376.837V381.121H97.2512V383.074H92.2112V387.547H97.8812V389.5H89.8172V374.884H97.8812V376.837H92.2112ZM110.259 374.905V376.858H106.374V389.5H103.98V376.858H100.074V374.905H110.259ZM126.727 374.905V376.858H120.532V381.163H125.362V383.116H120.532V389.5H118.138V374.905H126.727ZM136.527 389.5L133.167 383.662H131.34V389.5H128.946V374.905H133.986C135.106 374.905 136.051 375.101 136.821 375.493C137.605 375.885 138.186 376.41 138.564 377.068C138.956 377.726 139.152 378.461 139.152 379.273C139.152 380.225 138.872 381.093 138.312 381.877C137.766 382.647 136.919 383.172 135.771 383.452L139.383 389.5H136.527ZM131.34 381.751H133.986C134.882 381.751 135.554 381.527 136.002 381.079C136.464 380.631 136.695 380.029 136.695 379.273C136.695 378.517 136.471 377.929 136.023 377.509C135.575 377.075 134.896 376.858 133.986 376.858H131.34V381.751ZM144.609 376.837V381.121H149.649V383.074H144.609V387.547H150.279V389.5H142.215V374.884H150.279V376.837H144.609ZM155.621 376.837V381.121H160.661V383.074H155.621V387.547H161.291V389.5H153.227V374.884H161.291V376.837H155.621ZM172.089 387.568H177.024V389.5H169.695V374.905H172.089V387.568ZM181.42 376.837V381.121H186.46V383.074H181.42V387.547H187.09V389.5H179.026V374.884H187.09V376.837H181.42ZM194.848 389.647C193.868 389.647 192.986 389.479 192.202 389.143C191.418 388.793 190.802 388.303 190.354 387.673C189.906 387.043 189.682 386.308 189.682 385.468H192.244C192.3 386.098 192.545 386.616 192.979 387.022C193.427 387.428 194.05 387.631 194.848 387.631C195.674 387.631 196.318 387.435 196.78 387.043C197.242 386.637 197.473 386.119 197.473 385.489C197.473 384.999 197.326 384.6 197.032 384.292C196.752 383.984 196.395 383.746 195.961 383.578C195.541 383.41 194.953 383.228 194.197 383.032C193.245 382.78 192.468 382.528 191.866 382.276C191.278 382.01 190.774 381.604 190.354 381.058C189.934 380.512 189.724 379.784 189.724 378.874C189.724 378.034 189.934 377.299 190.354 376.669C190.774 376.039 191.362 375.556 192.118 375.22C192.874 374.884 193.749 374.716 194.743 374.716C196.157 374.716 197.312 375.073 198.208 375.787C199.118 376.487 199.622 377.453 199.72 378.685H197.074C197.032 378.153 196.78 377.698 196.318 377.32C195.856 376.942 195.247 376.753 194.491 376.753C193.805 376.753 193.245 376.928 192.811 377.278C192.377 377.628 192.16 378.132 192.16 378.79C192.16 379.238 192.293 379.609 192.559 379.903C192.839 380.183 193.189 380.407 193.609 380.575C194.029 380.743 194.603 380.925 195.331 381.121C196.297 381.387 197.081 381.653 197.683 381.919C198.299 382.185 198.817 382.598 199.237 383.158C199.671 383.704 199.888 384.439 199.888 385.363C199.888 386.105 199.685 386.805 199.279 387.463C198.887 388.121 198.306 388.653 197.536 389.059C196.78 389.451 195.884 389.647 194.848 389.647ZM207.522 389.647C206.542 389.647 205.66 389.479 204.876 389.143C204.092 388.793 203.476 388.303 203.028 387.673C202.58 387.043 202.356 386.308 202.356 385.468H204.918C204.974 386.098 205.219 386.616 205.653 387.022C206.101 387.428 206.724 387.631 207.522 387.631C208.348 387.631 208.992 387.435 209.454 387.043C209.916 386.637 210.147 386.119 210.147 385.489C210.147 384.999 210 384.6 209.706 384.292C209.426 383.984 209.069 383.746 208.635 383.578C208.215 383.41 207.627 383.228 206.871 383.032C205.919 382.78 205.142 382.528 204.54 382.276C203.952 382.01 203.448 381.604 203.028 381.058C202.608 380.512 202.398 379.784 202.398 378.874C202.398 378.034 202.608 377.299 203.028 376.669C203.448 376.039 204.036 375.556 204.792 375.22C205.548 374.884 206.423 374.716 207.417 374.716C208.831 374.716 209.986 375.073 210.882 375.787C211.792 376.487 212.296 377.453 212.394 378.685H209.748C209.706 378.153 209.454 377.698 208.992 377.32C208.53 376.942 207.921 376.753 207.165 376.753C206.479 376.753 205.919 376.928 205.485 377.278C205.051 377.628 204.834 378.132 204.834 378.79C204.834 379.238 204.967 379.609 205.233 379.903C205.513 380.183 205.863 380.407 206.283 380.575C206.703 380.743 207.277 380.925 208.005 381.121C208.971 381.387 209.755 381.653 210.357 381.919C210.973 382.185 211.491 382.598 211.911 383.158C212.345 383.704 212.562 384.439 212.562 385.363C212.562 386.105 212.359 386.805 211.953 387.463C211.561 388.121 210.98 388.653 210.21 389.059C209.454 389.451 208.558 389.647 207.522 389.647ZM222.044 389.647C220.686 389.647 219.433 389.332 218.285 388.702C217.151 388.058 216.248 387.169 215.576 386.035C214.918 384.887 214.589 383.599 214.589 382.171C214.589 380.743 214.918 379.462 215.576 378.328C216.248 377.194 217.151 376.312 218.285 375.682C219.433 375.038 220.686 374.716 222.044 374.716C223.416 374.716 224.669 375.038 225.803 375.682C226.951 376.312 227.854 377.194 228.512 378.328C229.17 379.462 229.499 380.743 229.499 382.171C229.499 383.599 229.17 384.887 228.512 386.035C227.854 387.169 226.951 388.058 225.803 388.702C224.669 389.332 223.416 389.647 222.044 389.647ZM222.044 387.568C223.01 387.568 223.871 387.351 224.627 386.917C225.383 386.469 225.971 385.839 226.391 385.027C226.825 384.201 227.042 383.249 227.042 382.171C227.042 381.093 226.825 380.148 226.391 379.336C225.971 378.524 225.383 377.901 224.627 377.467C223.871 377.033 223.01 376.816 222.044 376.816C221.078 376.816 220.217 377.033 219.461 377.467C218.705 377.901 218.11 378.524 217.676 379.336C217.256 380.148 217.046 381.093 217.046 382.171C217.046 383.249 217.256 384.201 217.676 385.027C218.11 385.839 218.705 386.469 219.461 386.917C220.217 387.351 221.078 387.568 222.044 387.568ZM243.845 389.5H241.451L234.248 378.601V389.5H231.854V374.884H234.248L241.451 385.762V374.884H243.845V389.5Z" fill="white"/>
<path d="M282 391L300 373M300 373H281M300 373V391" stroke="white" stroke-width="2"/>
<rect y="-6" width="1629" height="715" rx="41" fill="url(#paint0_linear_146_1540)"/>
<rect y="-6" width="1629" height="715" rx="41" fill="url(#paint1_linear_146_1540)"/>
<path d="M1215 588C1215 568.696 1211.2 549.58 1203.81 531.746C1196.42 513.911 1185.59 497.706 1171.94 484.055C1158.29 470.405 1142.09 459.577 1124.25 452.19C1106.42 444.802 1087.3 441 1068 441C1048.7 441 1029.58 444.802 1011.75 452.19C993.911 459.577 977.706 470.405 964.055 484.055C950.405 497.706 939.577 513.911 932.19 531.746C924.802 549.58 921 568.696 921 588L1068 588H1215Z" fill="#F8BEB0"/>
<circle cx="958" cy="591" r="37" fill="#F8BEB0"/>
<circle cx="1032" cy="591" r="37" fill="#F8BEB0"/>
<circle cx="1106" cy="591" r="37" fill="#F8BEB0"/>
<circle cx="1178" cy="588" r="37" fill="#F8BEB0"/>
<path d="M1280 355.999C1279.27 283.804 1420.44 212.449 1465.07 350.93V527.928C1409.62 530.665 1386.09 519.087 1368.57 455.928C1366.43 442.643 1365.18 431.445 1363.86 421.784C1363.95 420.368 1364 418.939 1364 417.5C1364 381.877 1335.12 353 1299.5 353C1292.7 353 1286.15 354.051 1280 355.999Z" fill="#E2D0FF"/>
<path d="M1178 243V113C1228.39 114.647 1251.22 123.308 1283 151.5V256C1239.56 243.887 1214.89 240.751 1178 243Z" fill="#F3C7B0"/>
</g>
<defs>
<linearGradient id="paint0_linear_146_1540" x1="0" y1="-6" x2="1629" y2="681" gradientUnits="userSpaceOnUse">
<stop stop-color="#F4F3FF"/>
<stop offset="1" stop-color="#F4F3FF"/>
</linearGradient>
<linearGradient id="paint1_linear_146_1540" x1="814.5" y1="-6" x2="814.5" y2="709" gradientUnits="userSpaceOnUse">
<stop stop-color="#F8EEDD"/>
<stop offset="1" stop-color="#F8E6CA"/>
</linearGradient>
<clipPath id="clip0_146_1540">
<rect width="1629" height="709" fill="white"/>
</clipPath>
</defs>
</svg>
