<svg width="70" height="52" viewBox="0 0 70 52" fill="none" xmlns="http://www.w3.org/2000/svg">
<path fill-rule="evenodd" clip-rule="evenodd" d="M61.25 52C63.5706 52 65.7962 51.0869 67.4372 49.4616C69.0781 47.8363 70 45.6319 70 43.3333V30.3333C70 28.0348 69.0781 25.8304 67.4372 24.2051C65.7962 22.5798 63.5706 21.6667 61.25 21.6667H48.125C48.125 18.2188 49.5078 14.9122 51.9692 12.4743C54.4306 10.0363 57.769 8.66666 61.25 8.66666H65.625C66.7853 8.66666 67.8981 8.21012 68.7186 7.39746C69.5391 6.58481 70 5.4826 70 4.33333C70 3.18406 69.5391 2.08186 68.7186 1.2692C67.8981 0.456543 66.7853 0 65.625 0H61.25C55.4484 0 49.8844 2.28273 45.782 6.34602C41.6797 10.4093 39.375 15.9203 39.375 21.6667V43.3333C39.375 45.6319 40.2969 47.8363 41.9378 49.4616C43.5788 51.0869 45.8044 52 48.125 52H61.25ZM21.875 52C24.1956 52 26.4212 51.0869 28.0622 49.4616C29.7031 47.8363 30.625 45.6319 30.625 43.3333V30.3333C30.625 28.0348 29.7031 25.8304 28.0622 24.2051C26.4212 22.5798 24.1956 21.6667 21.875 21.6667H8.75C8.75 18.2188 10.1328 14.9122 12.5942 12.4743C15.0556 10.0363 18.394 8.66666 21.875 8.66666H26.25C27.4103 8.66666 28.5231 8.21012 29.3436 7.39746C30.1641 6.58481 30.625 5.4826 30.625 4.33333C30.625 3.18406 30.1641 2.08186 29.3436 1.2692C28.5231 0.456543 27.4103 0 26.25 0H21.875C16.0734 0 10.5094 2.28273 6.40704 6.34602C2.30468 10.4093 0 15.9203 0 21.6667V43.3333C0 45.6319 0.921875 47.8363 2.56282 49.4616C4.20376 51.0869 6.42936 52 8.75 52H21.875Z" fill="white"/>
</svg>
