<svg width="24" height="24" viewBox="0 0 24 24" fill="none" xmlns="http://www.w3.org/2000/svg">
<path d="M19.2005 19.1992C17.8805 19.1992 16.8125 20.2792 16.8125 21.5992C16.8125 22.9192 17.8805 23.9992 19.2005 23.9992C20.5205 23.9992 21.6005 22.9192 21.6005 21.5992C21.6005 20.2792 20.5205 19.1992 19.2005 19.1992Z" fill="url(#paint0_linear_422_1662)"/>
<path d="M0 1.2C0 1.86 0.54 2.4 1.2 2.4H2.4L6.72 11.508L5.1 14.436C4.224 16.044 5.376 18 7.2 18H20.4C21.06 18 21.6 17.46 21.6 16.8C21.6 16.14 21.06 15.6 20.4 15.6H7.2L8.52 13.2H17.46C18.36 13.2 19.152 12.708 19.56 11.964L23.856 4.176C24.3 3.384 23.724 2.4 22.812 2.4H5.052L4.248 0.684C4.056 0.264 3.624 0 3.168 0H1.2C0.54 0 0 0.54 0 1.2Z" fill="url(#paint1_linear_422_1662)"/>
<path d="M7.2005 19.1992C5.8805 19.1992 4.8125 20.2792 4.8125 21.5992C4.8125 22.9192 5.8805 23.9992 7.2005 23.9992C8.5205 23.9992 9.6005 22.9192 9.6005 21.5992C9.6005 20.2792 8.5205 19.1992 7.2005 19.1992Z" fill="url(#paint2_linear_422_1662)"/>
<defs>
<linearGradient id="paint0_linear_422_1662" x1="16.8125" y1="21.5992" x2="21.6005" y2="21.5992" gradientUnits="userSpaceOnUse">
<stop stop-color="#F4B860"/>
<stop offset="1" stop-color="#D35244"/>
</linearGradient>
<linearGradient id="paint1_linear_422_1662" x1="0" y1="9" x2="24.0089" y2="9" gradientUnits="userSpaceOnUse">
<stop stop-color="#F4B860"/>
<stop offset="1" stop-color="#D35244"/>
</linearGradient>
<linearGradient id="paint2_linear_422_1662" x1="4.8125" y1="21.5992" x2="9.6005" y2="21.5992" gradientUnits="userSpaceOnUse">
<stop stop-color="#F4B860"/>
<stop offset="1" stop-color="#D35244"/>
</linearGradient>
</defs>
</svg>
